Coordinates
version=1
nRows=17
nColumns=40
inDegrees=yes

Units are S.I. units (second, meters, Newtons, ...)
Angles are in degrees.

endheader
time	pelvis_tilt	pelvis_list	pelvis_rotation	pelvis_tx	pelvis_ty	pelvis_tz	hip_flexion_r	hip_adduction_r	hip_rotation_r	knee_angle_r	knee_angle_r_beta	ankle_angle_r	subtalar_angle_r	mtp_angle_r	hip_flexion_l	hip_adduction_l	hip_rotation_l	knee_angle_l	knee_angle_l_beta	ankle_angle_l	subtalar_angle_l	mtp_angle_l	lumbar_extension	lumbar_bending	lumbar_rotation	arm_flex_r	arm_add_r	arm_rot_r	elbow_flex_r	pro_sup_r	wrist_flex_r	wrist_dev_r	arm_flex_l	arm_add_l	arm_rot_l	elbow_flex_l	pro_sup_l	wrist_flex_l	wrist_dev_l
     55.73000000	     -6.43272304	     -6.56613223	      0.77399201	      1.05744445	      0.92295214	      0.53298614	     18.77687203	      4.38757048	    -14.64744793	     19.54938289	     19.54938289	      9.36021280	      2.27067964	     -2.98620523	     36.35631358	    -14.55990036	      5.36445266	     67.73625222	     67.73625222	      7.17780080	    -18.24296364	     11.73015775	    -12.39602429	      6.38389757	      3.71380495	     20.25357496	    -19.31942837	     -1.39447234	     51.75571515	     45.31056206	      0.00000000	      0.00000000	      6.81677116	     -9.55536417	     -1.31309301	     52.79164586	     45.89032228	      0.00000000	      0.00000000
     55.74207143	     -6.38577919	     -6.63365533	      1.02184619	      1.05616484	      0.92418361	      0.53358408	     17.71140313	      4.59860782	    -14.82612729	     18.64086588	     18.64086588	      9.52427124	      2.65099391	     -2.85962714	     37.63165660	    -14.66939414	      5.17490352	     65.42127457	     65.42127457	      7.43068454	    -18.41879298	     11.85315497	    -12.46479627	      6.45042381	      3.28140268	     22.46346731	    -19.06317628	     -1.37733643	     53.71974783	     45.25402284	      0.00000000	      0.00000000	      5.09339680	     -9.71489379	     -1.22441431	     50.60757698	     45.85994332	      0.00000000	      0.00000000
     55.75414286	     -6.33827325	     -6.71235693	      1.24143557	      1.05491578	      0.92524733	      0.53411039	     16.71559064	      4.76393156	    -15.19945231	     17.87867036	     17.87867036	      9.73986129	      3.36473168	     -2.88719932	     38.66196543	    -14.77400277	      4.90739393	     62.76977803	     62.76977803	      7.54891820	    -18.50183608	     11.75409918	    -12.50277468	      6.57089554	      3.52186207	     23.82489488	    -19.81449982	     -0.32389760	     57.02995873	     45.11855029	      0.00000000	      0.00000000	      4.89832333	     -9.11783641	     -1.84133082	     45.50220807	     45.93936333	      0.00000000	      0.00000000
     55.76621429	     -6.28986405	     -6.69775447	      1.43778747	      1.05366348	      0.92632035	      0.53457631	     15.68789396	      4.86965823	    -15.44457298	     17.03367939	     17.03367939	      9.89334953	      3.94660614	     -2.78801357	     39.41585661	    -14.70911982	      4.62153605	     59.78638813	     59.78638813	      7.67113451	    -18.49307064	     11.95899541	    -12.59730991	      6.54893889	      3.68073111	     25.42691242	    -20.04919560	     -0.11355156	     59.80730133	     45.04374968	      0.00000000	      0.00000000	      4.15712739	     -8.88201695	     -2.17583156	     41.89412678	     45.99654056	      0.00000000	      0.00000000
     55.77828571	     -6.27436521	     -6.71068278	      1.60767731	      1.05245335	      0.92720614	      0.53493195	     14.68006173	      5.03161558	    -15.59920126	     16.12999520	     16.12999520	     10.02736037	      4.39070547	     -2.65852973	     40.00756459	    -14.59624027	      4.39927684	     56.55943670	     56.55943670	      7.74250397	    -18.43767088	     12.35629169	    -12.64175353	      6.55487806	      3.42973952	     27.50819093	    -19.73461708	     -0.23933510	     61.67056200	     44.99861655	      0.00000000	      0.00000000	      2.59666874	     -9.00116112	     -2.12557941	     40.13767431	     45.97030286	      0.00000000	      0.00000000
     55.79035714	     -6.30157705	     -6.76895322	      1.74938310	      1.05128472	      0.92778188	      0.53507117	     13.77964901	      5.14772577	    -16.10913973	     15.37888503	     15.37888503	     10.24593397	      5.43956466	     -2.72316123	     40.47003995	    -14.47148707	      4.26266083	     53.13395365	     53.13395365	      7.64989057	    -18.17227535	     12.22584480	    -12.62055906	      6.69270353	      3.67749031	     28.89536978	    -20.25271648	      0.35072845	     64.82033147	     44.90045464	      0.00000000	      0.00000000	      2.28123657	     -8.62679209	     -2.52972635	     35.68696086	     46.02894169	      0.00000000	      0.00000000
     55.80242857	     -6.28898604	     -6.77040331	      1.84504137	      1.05013100	      0.92838236	      0.53520480	     12.81308776	      5.29573946	    -16.18408165	     14.53809142	     14.53809142	     10.40495541	      5.86338974	     -2.63671573	     40.65843948	    -14.25887474	      4.15635325	     49.46111036	     49.46111036	      7.64250832	    -17.77028902	     12.56919690	    -12.66046381	      6.69645296	      3.59465106	     30.80981994	    -19.90567924	      0.20432691	     66.71508766	     44.85643902	      0.00000000	      0.00000000	      0.85247824	     -8.71870095	     -2.56076056	     34.30899695	     46.01359349	      0.00000000	      0.00000000
     55.81450000	     -6.34355591	     -6.85198324	      1.90408438	      1.04903238	      0.92859365	      0.53513667	     11.93667742	      5.44266218	    -16.62966126	     13.76942185	     13.76942185	     10.60681708	      6.97980754	     -2.80139767	     40.78217889	    -14.12372721	      4.11492564	     45.64678271	     45.64678271	      7.25255400	    -17.11907297	     11.73754387	    -12.64612322	      6.86284523	      3.89897410	     32.08051929	    -20.34182443	      0.53339099	     70.11688782	     44.76813884	      0.00000000	      0.00000000	      0.23087216	     -8.50822617	     -2.94832056	     31.46251690	     46.07084088	      0.00000000	      0.00000000
     55.82657143	     -6.38597491	     -6.84206206	      1.91054727	      1.04804104	      0.92881414	      0.53504867	     11.02988077	      5.57166244	    -16.64192133	     12.94845160	     12.94845160	     10.75138271	      7.45610513	     -2.75906644	     40.70652477	    -13.92407796	      3.99312421	     41.74586306	     41.74586306	      7.24498698	    -16.08361431	     12.07467819	    -12.62261536	      6.85188908	      3.88519719	     33.83370686	    -19.84192208	      0.43856779	     71.97563987	     44.72360256	      0.00000000	      0.00000000	     -1.31323956	     -8.60469727	     -2.96085555	     30.42506535	     46.04942476	      0.00000000	      0.00000000
     55.83864286	     -6.43331953	     -6.94867816	      1.91702939	      1.04722128	      0.92869359	      0.53478372	     10.09511571	      5.80244790	    -16.84746947	     12.10034639	     12.10034639	     10.99874792	      8.15216368	     -2.83059945	     40.56894658	    -13.84657128	      3.91838229	     37.89289503	     37.89289503	      7.32073998	    -14.69744766	     12.25320279	    -12.51208782	      7.05194811	      3.82219819	     35.57799333	    -19.41049045	      0.50297622	     74.23243777	     44.66158292	      0.00000000	      0.00000000	     -2.80116268	     -8.63582941	     -2.95663018	     29.44044046	     46.02652884	      0.00000000	      0.00000000
     55.85071429	     -6.45159795	     -7.10139669	      1.91364799	      1.04655203	      0.92842616	      0.53440657	      9.11610413	      6.07531446	    -17.06794654	     11.24373006	     11.24373006	     11.21581425	      8.96216601	     -2.94759962	     40.32694047	    -13.84545073	      3.77028951	     34.15303951	     34.15303951	      7.33833116	    -13.09952254	     12.43038463	    -12.46552971	      7.27727423	      3.79915178	     37.13860245	    -19.02933559	      0.70025872	     76.75709609	     44.58761975	      0.00000000	      0.00000000	     -4.25490341	     -8.63681230	     -2.93774824	     28.62186984	     46.00147527	      0.00000000	      0.00000000
     55.86278571	     -6.46386629	     -7.20169670	      1.85871893	      1.04606593	      0.92801646	      0.53392949	      8.15680468	      6.28406779	    -17.14157330	     10.47446254	     10.47446254	     11.46188007	      9.66621839	     -3.07708188	     39.97014963	    -13.83384438	      3.45030392	     30.57506685	     30.57506685	      7.30144111	    -11.44823333	     12.80051164	    -12.34614299	      7.45652125	      3.89615464	     38.59999293	    -18.65527201	      0.88234764	     79.08825158	     44.51924308	      0.00000000	      0.00000000	     -5.69379175	     -8.67267339	     -2.90657055	     28.01785514	     45.97345894	      0.00000000	      0.00000000
     55.87485714	     -6.40410091	     -7.45254858	      1.83241794	      1.04584245	      0.92743806	      0.53333518	      7.00322980	      6.66367343	    -17.43908191	      9.50187135	      9.50187135	     11.58300719	     10.69812507	     -3.45157930	     39.61987904	    -13.99016303	      3.01649910	     27.44861333	     27.44861333	      7.25363306	     -9.65672444	     13.01487535	    -12.39479464	      7.81829877	      4.29025653	     39.42980576	    -18.91875206	      1.33033851	     83.28004277	     44.41038442	      0.00000000	      0.00000000	     -7.12063368	     -8.67378023	     -2.67196021	     28.05871241	     45.91326324	      0.00000000	      0.00000000
     55.88692857	     -6.37698011	     -7.55717231	      1.74578991	      1.04571545	      0.92676222	      0.53259791	      6.05464379	      6.85396742	    -17.32964660	      8.89116275	      8.89116275	     11.92235728	     11.12103480	     -3.55776448	     39.15785530	    -13.98096620	      2.43957275	     24.56153478	     24.56153478	      7.12042010	     -8.34238085	     13.65093199	    -12.26282377	      7.98962414	      4.33111377	     40.86941110	    -18.29218689	      1.35274538	     85.11003074	     44.36492415	      0.00000000	      0.00000000	     -8.48949437	     -8.67547833	     -2.54459400	     27.59875507	     45.87058339	      0.00000000	      0.00000000
     55.89900000	     -6.24245323	     -7.72893695	      1.68316707	      1.04590477	      0.92604143	      0.53173956	      4.87321824	      7.13544099	    -17.26386041	      8.09211989	      8.09211989	     12.21245861	     11.70986761	     -3.62362867	     38.67778602	    -14.04956160	      1.68456544	     22.30314600	     22.30314600	      7.08057352	     -7.09493066	     14.24407954	    -12.26198593	      8.25097977	      4.19579961	     42.10833846	    -17.54258072	      1.58886169	     87.65716230	     44.29341102	      0.00000000	      0.00000000	    -10.05521426	     -8.66675364	     -2.35505766	     27.41264772	     45.81224581	      0.00000000	      0.00000000
     55.91107143	     -6.17011791	     -7.94048213	      1.61715314	      1.04619092	      0.92506950	      0.53069037	      3.82789355	      7.41850136	    -17.20694043	      7.43929264	      7.43929264	     12.53189729	     12.24386668	     -3.71180688	     38.35564862	    -14.14208264	      0.78536801	     20.67354336	     20.67354336	      7.12110629	     -6.01399178	     14.99294131	    -12.21819953	      8.56223738	      4.54555883	     42.84130799	    -17.58220994	      1.86040927	     91.11607014	     44.22859827	      0.00000000	      0.00000000	    -11.68486364	     -8.80535716	     -1.60145699	     28.49824672	     45.66365165	      0.00000000	      0.00000000
     55.92314286	     -6.11026023	     -8.03322083	      1.54145342	      1.04656810	      0.92403943	      0.52942330	      2.95701411	      7.50695691	    -17.02109070	      7.13072230	      7.13072230	     12.99653917	     12.46216598	     -3.77869089	     37.90341515	    -14.05276383	     -0.08389254	     19.31899828	     19.31899828	      6.87933865	     -5.57900212	     15.38321646	    -12.04170611	      8.75141266	      4.49378794	     44.02178749	    -16.87139884	      1.95991628	     92.77161332	     44.18717943	      0.00000000	      0.00000000	    -12.90607889	     -8.72727644	     -1.37550700	     28.20779503	     45.60978441	      0.00000000	      0.00000000
